<svg width="300" height="88" xmlns="http://www.w3.org/2000/svg">
 <defs>
  <style>.cls-1{fill:#030303;}.cls-2{fill:#fff;}.cls-3{fill:#393939;}</style>
 </defs>
 <title>logo</title>
 <g>
  <title>background</title>
  <rect fill="none" id="canvas_background" height="602" width="802" y="-1" x="-1"/>
 </g>
 <g>
  <title>Layer 1</title>
  <g fill="#393939" transform="matrix(2.347550150200977,0,0,2.347550150200977,85.1834059375617,-21.170512250480336) " id="SvgjsG1202">
   <path id="svg_1" d="m12.98714,29.63988c3.4434,0 6.2452,2.8016 6.2452,6.2452s-2.8016,6.2452 -6.2452,6.2452l-8.098,0c-1.2128,0 -2.196,-0.98328 -2.196,-2.196s0.98328,-2.196 2.196,-2.196l8.098,0c1.0217,0 1.8529,-0.8312 1.8529,-1.8529s-0.8312,-1.8529 -1.8529,-1.8529l-8.098,0c-3.4434,0 -6.2452,-2.8016 -6.2452,-6.2452s2.8016,-6.2452 6.2452,-6.2452l8.098,0c1.2128,0 2.196,0.98328 2.196,2.196s-0.98328,2.196 -2.196,2.196l-8.098,0c-1.0217,0 -1.8529,0.8312 -1.8529,1.8529s0.8312,1.8529 1.8529,1.8529l8.098,0zm9.717,-8.098c1.2128,0 2.196,0.98328 2.196,2.196l0,16.196c0,1.2128 -0.98328,2.196 -2.196,2.196s-2.196,-0.98328 -2.196,-2.196l0,-16.196c0,-1.2128 0.98328,-2.196 2.196,-2.196zm-2.0286,-4.376c-0.05488,-0.13176 -0.09606,-0.2718 -0.12352,-0.4118c-0.0302,-0.14 -0.04391,-0.28551 -0.04391,-0.42824s0.01371,-0.28824 0.04391,-0.42824c0.02746,-0.14 0.06863,-0.28 0.12352,-0.41176s0.12352,-0.26078 0.20312,-0.37883c0.07961,-0.12078 0.1702,-0.23332 0.27176,-0.33488s0.2141,-0.19215 0.33488,-0.27176c0.11805,-0.07961 0.24707,-0.14824 0.37883,-0.20312s0.27176,-0.09606 0.41176,-0.12352c0.71372,-0.14551 1.4714,0.09059 1.982,0.59844c0.09883,0.10156 0.19215,0.2141 0.27176,0.33488c0.07961,0.11805 0.14824,0.24707 0.20312,0.37883s0.09606,0.27176 0.12352,0.41176c0.03019,0.14 0.04391,0.28551 0.04391,0.42824s-0.01371,0.28824 -0.04391,0.42824c-0.02746,0.14 -0.06863,0.28 -0.12352,0.41176s-0.12352,0.26078 -0.20312,0.37883c-0.07961,0.12078 -0.17293,0.23332 -0.27176,0.33488c-0.10156,0.10156 -0.2141,0.19215 -0.33488,0.27176c-0.11805,0.07961 -0.24707,0.14824 -0.37883,0.20312s-0.27176,0.09606 -0.41176,0.12352c-0.14,0.03019 -0.28551,0.04391 -0.42824,0.04391s-0.28824,-0.01371 -0.42824,-0.04391c-0.14,-0.02746 -0.28,-0.06863 -0.41176,-0.12352s-0.26078,-0.12352 -0.37883,-0.20312c-0.12078,-0.07961 -0.23332,-0.1702 -0.33488,-0.27176s-0.19215,-0.2141 -0.27176,-0.33488c-0.07961,-0.11805 -0.14824,-0.24707 -0.20312,-0.37883l-0.00005,0zm16.3956,20.572c1.2128,0 2.1961,0.98332 2.1961,2.1961s-0.98328,2.196 -2.196,2.196c-5.7668,0 -10.459,-4.692 -10.459,-10.459l0,-15.345c0,-1.2128 0.98328,-2.196 2.196,-2.196s2.196,0.98328 2.196,2.196l0,5.2217l6.0666,0c1.2128,0 2.196,0.98328 2.196,2.196s-0.98328,2.196 -2.196,2.196l-6.0666,0l0,5.7312c0,3.3452 2.7215,6.0668 6.0668,6.0668l0.0001,0.0002zm12.179,-16.196c5.6764,0 10.294,4.6176 10.294,10.294c0,1.2128 -0.98328,2.196 -2.196,2.196l-13.576,0c0.87292,2.17 2.9995,3.7059 5.4784,3.7059c1.5765,0 3.0586,-0.6138 4.1732,-1.7286c0.85784,-0.85756 2.248,-0.85732 3.1058,0c0.85784,0.85784 0.85756,2.2482 0,3.1058c-1.9446,1.9443 -4.5296,3.0149 -7.2792,3.0149c-5.6764,0 -10.294,-4.6176 -10.294,-10.294s4.6176,-10.294 10.294,-10.294l-0.0002,0zm-5.4784,8.098l10.957,0c-0.87292,-2.17 -2.9995,-3.7059 -5.4784,-3.7059s-4.6056,1.5359 -5.4784,3.7059l-0.0002,0zm23.2064,-15.343c0.82052,0.34012 1.3555,1.1409 1.3555,2.029l0,23.608c0,1.2128 -0.98328,2.196 -2.196,2.196s-2.196,-0.98328 -2.196,-2.196l0,-18.306l-0.97256,0.97256c-0.85756,0.85756 -2.248,0.85756 -3.1056,0c-0.85784,-0.85756 -0.85784,-2.248 0,-3.1056l4.7216,-4.7216c0.6278,-0.6278 1.5726,-0.8164 2.3932,-0.476l-0.00014,-0.00036zm16.861,6.751l0,1.1803c0,1.8241 -0.71096,3.4843 -1.8686,4.7216c1.1576,1.2372 1.8686,2.8974 1.8686,4.7216l0,3.5412c0,3.8143 -3.1033,6.9176 -6.9176,6.9176s-6.9176,-3.103 -6.9176,-6.9176c0,-1.2128 0.98328,-2.196 2.196,-2.196s2.196,0.98328 2.196,2.196c0,1.3926 1.1329,2.5255 2.5255,2.5255s2.5255,-1.1329 2.5255,-2.5255l0,-3.5412c0,-1.3926 -1.1329,-2.5255 -2.5255,-2.5255c-1.2128,0 -2.196,-0.98328 -2.196,-2.196s0.98328,-2.196 2.196,-2.196c1.3926,0 2.5255,-1.1329 2.5255,-2.5255l0,-1.1804c0,-1.3926 -1.1329,-2.5255 -2.5255,-2.5255s-2.5255,1.1329 -2.5255,2.5255c0,1.2128 -0.98328,2.196 -2.196,2.196s-2.196,-0.98328 -2.196,-2.196c0,-3.8146 3.1033,-6.9176 6.9176,-6.9176s6.9176,3.103 6.9176,6.9176l0,-0.0001z"/>
  </g>
  <path id="svg_15" d="m65.56419,33.14585c0.04112,-0.4191 0.06493,-0.84251 0.06493,-1.27021c0,-7.41922 -6.05557,-13.43284 -13.52657,-13.43284c-5.79803,0 -10.73036,3.63009 -12.65438,8.72382c-1.27474,-1.38842 -3.09271,-2.27606 -5.1336,-2.27606c-3.84804,0 -6.96672,3.09707 -6.96672,6.91845c0,0.45134 0.04978,0.89194 0.13418,1.31749c-5.1336,0.84036 -9.06172,5.23558 -9.06172,10.57003c0,5.93624 4.84576,10.74627 10.82126,10.74627l34.35749,0c5.97766,0 10.82126,-4.81003 10.82126,-10.74627c0.00216,-5.26782 -3.8199,-9.63081 -8.85612,-10.55069z" stroke-width="2" stroke="#000" fill="#fff"/>
  <path id="svg_21" d="m58.39512,47.59887c-4.60388,0 -8.55558,1.96971 -10.48987,4.81326c-0.77255,-0.35582 -1.62466,-0.57127 -2.53407,-0.57127c-2.75008,0 -5.03854,1.82516 -5.74585,4.30276c-1.2073,-0.39369 -2.61105,-0.63204 -4.1105,-0.63204c-4.49835,0 -8.14733,2.0305 -8.14733,4.5337c0,2.25957 2.99264,4.11714 6.88029,4.46077c-0.17424,0.24389 -0.30939,0.48542 -0.30939,0.74144c0,2.39668 7.95905,4.35138 17.76796,4.35138c9.80891,0 17.76797,-1.9547 17.76796,-4.35138c0,-0.16126 -0.12132,-0.30517 -0.19153,-0.46188c0.42963,0.08815 0.85503,0.18232 1.32597,0.18232c2.62403,0.00001 4.75875,-1.47094 4.75875,-3.28177c0,-1.81083 -2.13472,-3.28177 -4.75875,-3.28177c-0.32157,0 -0.595,0.09164 -0.89871,0.1337c0.26556,-0.72406 0.44199,-1.46287 0.44199,-2.24862c0,-4.79337 -5.25929,-8.69061 -11.7569,-8.69061l0,0z" stroke-width="2" stroke="#000" fill="#fff"/>
 </g>
</svg>
